<svg xmlns="http://www.w3.org/2000/svg" xmlns:xlink="http://www.w3.org/1999/xlink" width="1033" zoomAndPan="magnify" viewBox="0 0 774.75 910.499973" height="1214" preserveAspectRatio="xMidYMid meet" version="1.0"><defs><g/><clipPath id="6cd078ec12"><path d="M 474.882812 404.332031 L 669.773438 404.332031 L 669.773438 656.070312 L 474.882812 656.070312 Z M 474.882812 404.332031 " clip-rule="nonzero"/></clipPath></defs><g clip-path="url(#6cd078ec12)"><path fill="#2081e2" d="M 474.882812 404.332031 L 669.773438 404.332031 L 669.773438 656.324219 L 474.882812 656.324219 Z M 474.882812 404.332031 " fill-opacity="1" fill-rule="nonzero"/></g><g fill="#000000" fill-opacity="1"><g transform="translate(145.028348, 658.443789)"><g><path d="M 278.75 -142.703125 C 278.75 -118.960938 276.015625 -97.910156 270.546875 -79.546875 C 265.085938 -61.191406 257.234375 -45.734375 246.984375 -33.171875 C 236.734375 -20.617188 224.175781 -11.097656 209.3125 -4.609375 C 194.457031 1.878906 177.46875 5.125 158.34375 5.125 C 139.382812 5.125 122.429688 1.878906 107.484375 -4.609375 C 92.535156 -11.097656 79.847656 -20.617188 69.421875 -33.171875 C 59.003906 -45.734375 51.019531 -61.191406 45.46875 -79.546875 C 39.925781 -97.910156 37.15625 -118.960938 37.15625 -142.703125 L 37.15625 -230.078125 C 37.15625 -253.816406 39.882812 -274.867188 45.34375 -293.234375 C 50.8125 -311.597656 58.710938 -327.097656 69.046875 -339.734375 C 79.378906 -352.367188 92.019531 -361.972656 106.96875 -368.546875 C 121.914062 -375.128906 138.867188 -378.421875 157.828125 -378.421875 C 176.953125 -378.421875 193.988281 -375.128906 208.9375 -368.546875 C 223.882812 -361.972656 236.523438 -352.367188 246.859375 -339.734375 C 257.191406 -327.097656 265.085938 -311.597656 270.546875 -293.234375 C 276.015625 -274.867188 278.75 -253.816406 278.75 -230.078125 Z M 84.8125 -152.1875 L 230.078125 -263.640625 C 227.347656 -288.410156 220.128906 -307.242188 208.421875 -320.140625 C 196.722656 -333.035156 179.859375 -339.484375 157.828125 -339.484375 C 132.890625 -339.484375 114.484375 -331.066406 102.609375 -314.234375 C 90.742188 -297.410156 84.8125 -272.859375 84.8125 -240.578125 Z M 231.109375 -218.296875 L 86.09375 -107.359375 C 88.988281 -83.265625 96.414062 -64.898438 108.375 -52.265625 C 120.332031 -39.628906 136.988281 -33.3125 158.34375 -33.3125 C 183.445312 -33.3125 201.847656 -41.847656 213.546875 -58.921875 C 225.253906 -76.003906 231.109375 -100.601562 231.109375 -132.71875 Z M 231.109375 -218.296875 "/></g></g></g><g fill="#000000" fill-opacity="1"><g transform="translate(467.363039, 621.963815)"><g><path d="M 106.0625 -116.3125 L 155.421875 -184.8125 L 192.484375 -184.8125 L 123.65625 -93.421875 L 194.375 0 L 157.8125 0 L 106.75 -70.375 L 55.6875 0 L 18.78125 0 L 89.5 -93.421875 L 20.671875 -184.8125 L 57.21875 -184.8125 Z M 106.0625 -116.3125 "/></g></g></g></svg>